<svg preserveAspectRatio="none" width="100%" height="100%" overflow="visible" style="display: block;" viewBox="0 0 275 15" fill="none" xmlns="http://www.w3.org/2000/svg">
<path id="vector" d="M0.5 0.500049V14.4626M10.2833 0.500049V14.4626M0.5 7.48H10.2833M23.9873 14.4626H15.5118V0.500049H23.8992M22.8555 7.01032H15.5118M94.4486 14.4626H85.9731V0.500049H94.3605M93.3168 7.01032H85.9731M164.151 14.4626H155.675V0.500049H164.063M163.019 7.01032H155.675M31.921 14.4626L36.088 8.29758M40.5793 14.4626V0.500049H35.6285C33.2707 0.500049 32.3737 1.97345 32.3737 4.4323C32.3737 6.94682 33.4556 8.29758 35.2738 8.29758H40.5788M72.1376 14.4626L76.3046 8.29758M80.7964 14.4626V0.500049H75.8456C73.4878 0.500049 72.5908 1.97345 72.5908 4.4323C72.5908 6.94682 73.6728 8.29758 75.4909 8.29758H80.7959M122.95 14.4626L127.117 8.29758M131.608 14.4626V0.500049H126.657C124.299 0.500049 123.402 1.97345 123.402 4.4323C123.402 6.94682 124.484 8.29758 126.302 8.29758H131.607M45.7843 7.2382H50.9683C54.1366 7.2382 54.1701 4.22356 54.1701 3.68082C54.1701 2.99717 54.1366 0.500049 50.9803 0.500049H45.7843V14.4626C45.7843 14.4626 48.7373 14.5469 51.3749 14.4626C54.5741 14.3599 54.5741 11.367 54.5741 10.9869C54.5741 10.2163 54.5741 7.23298 51.181 7.23298M233.081 7.2382H238.265C241.434 7.2382 241.467 4.22356 241.467 3.68082C241.467 2.99717 241.434 0.500049 238.278 0.500049H233.081V14.4626C233.081 14.4626 236.034 14.5469 238.672 14.4626C241.871 14.3599 241.871 11.367 241.871 10.9869C241.871 10.2163 241.871 7.23298 238.478 7.23298M67.7159 14.4626V0.500049H59.9625C59.9625 0.500049 59.9845 7.43738 59.8776 9.74054C59.7707 12.0437 59.2179 14.4799 57.2473 14.4626M150.458 14.4626V0.500049H142.704C142.704 0.500049 142.726 7.43738 142.619 9.74054C142.512 12.0437 141.96 14.4799 139.989 14.4626M96.8079 0.500049H107.522M102.165 14.4626V0.500049M219.057 0.500049H229.771M224.414 14.4626V0.500049M119.851 1.66642C119.851 1.66642 118.077 0.500049 115.192 0.500049C112.715 0.500049 109.423 2.0352 109.423 7.2843C109.423 12.5334 112.289 14.4626 114.915 14.4626C118.373 14.4626 119.85 13.2701 119.85 13.2701M216.702 1.66642C216.702 1.66642 214.928 0.500049 212.043 0.500049C209.565 0.500049 206.273 2.0352 206.273 7.2843C206.273 12.5334 209.14 14.4626 211.765 14.4626C215.224 14.4626 216.701 13.2701 216.701 13.2701M168.156 0.500049V14.4626M176.698 0.500049L171.077 7.3965M171.077 7.3965L176.902 14.4626M171.077 7.3965H168.156M179.589 14.4626L185.206 0.500049L190.857 14.4626M181.459 9.68227H188.904M194.654 14.4626V0.500049H199.524C202.126 0.500049 202.958 2.36224 202.958 3.93827C202.958 5.47342 202.699 8.05144 199.537 8.05144H194.655M262.164 14.4626V0.500049L268.353 12.7404L274.5 0.500049V14.4626M257.744 7.46956C257.744 12.2264 255.049 14.4626 251.656 14.4626C248.262 14.4626 245.459 12.2203 245.459 7.45303C245.459 2.64317 248.214 0.500049 251.608 0.500049C255.002 0.500049 257.744 2.48488 257.744 7.46956Z" stroke="var(--stroke-0, black)" stroke-opacity="0.25" stroke-linecap="round" stroke-linejoin="round"/>
</svg>
